# AST/ASF file generated using VICON BodyLanguage
# -----------------------------------------------
:version 1.10
:name VICON
:units
  mass 1.0
  length 0.45
  angle deg
:documentation
   .ast/.asf automatically generated from VICON data using
   VICON BodyBuilder and BodyLanguage model FoxedUp or BRILLIANT.MOD
:root
   order TX TY TZ RX RY RZ
   axis XYZ
   position 0 0 0  
   orientation 0 0 0 
:bonedata
  begin
     id 1 
     name lhipjoint
     direction 0.575328 -0.747301 0.332475 
     length 2.40933 
     axis 0 0 0  XYZ
  end
  begin
     id 2 
     name lfemur
     direction 0.34202 -0.939693 0  
     length 7.31453  
     axis 0 0 20  XYZ
    dof rx ry rz
    limits (-160.0 20.0)
           (-70.0 70.0)
           (-60.0 70.0)
  end
  begin
     id 3 
     name ltibia
     direction 0.34202 -0.939693 0   
     length 7.82185   
     axis 0 0 20   XYZ
    dof rx
    limits (-10.0 170.0)
  end
  begin
     id 4 
     name lfoot
     direction 0.0795993 -0.218697 0.972541   
     length 2.19173   
     axis -90 7.62852e-016 20   XYZ
    dof rx rz
    limits (-45.0 90.0)
           (-70.0 20.0)
  end
  begin
     id 5 
     name ltoes
     direction 1.53537e-011 -4.21894e-011 1   
     length 1.10023   
     axis -90 7.62852e-016 20   XYZ
    dof rx
    limits (-90.0 20.0)
  end
  begin
     id 6 
     name rhipjoint
     direction -0.513884 -0.783789 0.348708   
     length 2.29716  
     axis 0 0 0  XYZ 
  end
  begin
     id 7 
     name rfemur
     direction -0.34202 -0.939693 0   
     length 7.59573   
     axis 0 0 -20   XYZ
    dof rx ry rz
    limits (-160.0 20.0)
           (-70.0 70.0)
           (-70.0 60.0)
  end
  begin
     id 8 
     name rtibia
     direction -0.34202 -0.939693 0   
     length 7.66402   
     axis 0 0 -20   XYZ
    dof rx
    limits (-10.0 170.0)
 end
 begin
     id 9 
     name rfoot
     direction -0.137793 -0.378584 0.915253   
     length 2.27056  
     axis -90 -7.62852e-016 -20   XYZ
    dof rx rz
    limits (-45.0 90.0)
           (-20.0 70.0)
  end
  begin
     id 10 
     name rtoes
     direction -1.53493e-011 -4.22159e-011 1   
     length 1.11766   
     axis -90 -7.62852e-016 -20   XYZ
    dof rx
    limits (-90.0 20.0)
  end
  begin
     id 11 
     name lowerback
     direction -0.00732775 0.998356 -0.05685   
     length 2.16513   
     axis 0 0 0   XYZ
    dof rx ry rz
    limits (-20.0 45.0)
           (-30.0 30.0)
           (-30.0 30.0)
  end
  begin
     id 12 
     name upperback
     direction 0.0218081 0.999627 -0.0164647   
     length 2.16755   
     axis 0 0 0   XYZ
    dof rx ry rz
    limits (-20.0 45.0)
           (-30.0 30.0)
           (-30.0 30.0)
  end
  begin
     id 13 
     name thorax
     direction 0.02365 0.999661 0.0108914   
     length 2.16932   
     axis 0 0 0   XYZ
    dof rx ry rz
    limits (-20.0 45.0)
           (-30.0 30.0)
           (-30.0 30.0)
  end
  begin
     id 14 
     name lowerneck
     direction -0.0523929 0.978385 0.200044   
     length 1.63877   
     axis 0 0 0   XYZ
    dof rx ry rz
    limits (-20.0 45.0)
           (-30.0 30.0)
           (-30.0 30.0)
  end
  begin
     id 15 
     name upperneck
     direction 0.0448674 0.981321 -0.187074   
     length 1.69014   
     axis 0 0 0   XYZ
    dof rx ry rz
    limits (-20.0 45.0)
           (-30.0 30.0)
           (-30.0 30.0)
  end
  begin
     id 16
     name head
     direction 0.0199089 0.996118 -0.0857429  
     length 1.70094  
     axis 0 0 0   XYZ
    dof rx ry rz
    limits (-20.0 45.0)
           (-30.0 30.0)
           (-30.0 30.0)
  end
  begin
     id 17 
     name lclavicle
     direction 0.940366 0.30191 -0.156722  
     length 3.37521  
     axis 0 0 0   XYZ
    dof ry rz
    limits (-20.0 10.0)
           (0.0 20.0)
  end
  begin
     id 18 
     name lhumerus
     direction 1 -4.4897e-011 -1.7911e-027   
     length 5.25287   
     axis 180 -30 -90   XYZ
    dof rx ry rz
    limits (-60.0 90.0)
           (-90.0 90.0)
           (-90.0 90.0)
  end
  begin
     id 19
     name lradius
     direction 1 -4.48951e-011 1.04424e-027   
     length 3.51014   
     axis 180 -30 -90   XYZ
    dof rx
    limits (-10.0 170.0)
  end
  begin
     id 20
     name lwrist
     direction 1 -4.48997e-011 -9.5942e-028   
     length 1.75507   
     axis 8.48502e-016 90 90   XYZ
    dof ry
    limits (-180.0 0.0)
 end
  begin
     id 21 
     name lhand
     direction 1 -4.48831e-011 -1.90777e-027   
     length 0.706179   
     axis 1.22306e-015 90 90   XYZ
    dof rx rz
    limits (-90.0 90.0)
           (-45.0 45.0)
  end
  begin
     id 22 
     name lfingers
     direction 1 -4.49108e-011 -3.85244e-027   
     length 0.569339   
     axis 2.44611e-015 90 90   XYZ
    dof rx
    limits (0.0 90.0)
  end
  begin
     id 23
     name lthumb
     direction 0.707107 -6.34953e-011 0.707107   
     length 0.817461   
     axis -90 45 -1.62303e-014   XYZ
    dof rx rz
    limits (-45.0 45.0)
           (-45.0 45.0)
  end
  begin
     id 24 
     name rclavicle
     direction -0.905329 0.382405 -0.184787   
     length 3.30787  
     axis 0 0 0   XYZ 
    dof ry rz
    limits (-10.0 20.0)
           (-20.0 0.0)
  end
  begin
     id 25 
     name rhumerus
     direction -1 -4.48953e-011 -9.15316e-029  
     length 5.28721   
     axis 180 30 90   XYZ
    dof rx ry rz
    limits (-90.0 60.0)
           (-90.0 90.0)
           (-90.0 90.0)
  end
  begin
     id 26 
     name rradius
     direction -1 -4.48987e-011 9.37824e-028   
     length 3.50544   
     axis 180 30 90   XYZ
    dof rx
    limits (-10.0 170.0)
  end
  begin
     id 27 
     name rwrist
     direction -1 -4.48967e-011 -9.58414e-028   
     length 1.75272   
     axis 8.48502e-016 -90 -90   XYZ
    dof ry
    limits (-180.0 0.0)
  end
  begin
     id 28
     name rhand
     direction -1 -4.48904e-011 -1.91266e-027   
     length 0.884996   
     axis 1.22306e-015 -90 -90   XYZ
    dof rx rz
    limits (-90.0 90.0)
           (-45.0 45.0)
  end
  begin
     id 29
     name rfingers
     direction -1 -4.4909e-011 -3.85015e-027   
     length 0.713507   
     axis 2.44611e-015 -90 -90   XYZ
    dof rx
    limits (0.0 90.0)
  end
  begin
     id 30
     name rthumb
     direction -0.707107 -6.34853e-011 0.707107   
     length 1.02446   
     axis -90 -45 1.62303e-014   XYZ
    dof rx rz
    limits (-45.0 45.0)
           (-45.0 45.0)
  end
:hierarchy
  begin
    root lhipjoint rhipjoint lowerback
    lhipjoint lfemur
    lfemur ltibia
    ltibia lfoot
    lfoot ltoes
    rhipjoint rfemur
    rfemur rtibia
    rtibia rfoot
    rfoot rtoes
    lowerback upperback
    upperback thorax
    thorax lowerneck lclavicle rclavicle
    lowerneck upperneck
    upperneck head
    lclavicle lhumerus
    lhumerus lradius
    lradius lwrist
    lwrist lhand lthumb
    lhand lfingers
    rclavicle rhumerus
    rhumerus rradius
    rradius rwrist
    rwrist rhand rthumb
    rhand rfingers
  end

#!OML:ASF F:\twosubjects\two\Thursday\Session 1\justin.ASF
:FULLY-SPECIFIED
:DEGREES
114
root 2.99691 17.715 -2.64824 -172.746 -7.2218 177.277
lowerback -1.18186 -0.0595302 -5.16008
upperback -1.45241 -0.10033 -0.390907
thorax -0.824965 -0.0235316 2.49005
lowerneck -21.3283 -3.75394 -9.88116
upperneck 24.0417 -3.63129 4.37094
head 11.6725 -2.16536 2.64596
rclavicle 7.43889e-015 -6.4605e-015
rhumerus 30.8167 -13.1227 -60.8806
rradius 38.7236
rwrist -10.8413
rhand -3.59932 -3.8227
rfingers 7.12502
rthumb 22.1387 -32.5751
lclavicle 7.43889e-015 -6.4605e-015
lhumerus -1.38501 -21.9699 85.2705
lradius 54.1454
lwrist 0.0243724
lhand -7.15388 33.7638
lfingers 7.12502
lthumb 18.7228 62.8828
rfemur -34.0687 -11.0836 16.9179
rtibia 67.1073
rfoot -14.1699 -8.83415
rtoes -2.16406
lfemur -13.6281 5.72102 -28.323
ltibia 28.7116
lfoot -17.3246 -5.76762
ltoes -3.26124
115
root 2.99028 17.7091 -2.80421 -172.613 -7.58625 177.119
lowerback -1.44789 -0.121904 -5.39251
upperback -1.37295 -0.161198 -0.339449
thorax -0.588889 -0.0587154 2.67228
lowerneck -21.3669 -3.86949 -9.85501
upperneck 23.9502 -3.78471 4.36197
head 11.6572 -2.2262 2.612
rclavicle 1.48793e-014 -7.70291e-015
rhumerus 31.8186 -13.8989 -60.9346
rradius 38.9433
rwrist -11.8651
rhand -3.64788 -3.99893
rfingers 7.12502
rthumb 22.0921 -32.7569
lclavicle 1.48793e-014 -7.70291e-015
lhumerus -1.2114 -21.8276 85.275
lradius 55.0893
lwrist 0.191085
lhand -7.30171 34.0374
lfingers 7.12502
lthumb 18.5806 63.17
rfemur -34.9417 -11.0927 16.8501
rtibia 65.7006
rfoot -14.8259 -8.88566
rtoes -0.0645487
lfemur -12.9128 5.26811 -28.3988
ltibia 28.2706
lfoot -17.628 -5.47157
ltoes -3.65035
116
root 2.98739 17.7042 -2.95656 -172.557 -7.98333 177.216
lowerback -1.33408 -0.262312 -5.23078
upperback -1.45939 -0.357762 -0.239213
thorax -0.724683 -0.152101 2.68375
lowerneck -21.6723 -3.85697 -10.1131
upperneck 24.1745 -3.70971 4.56844
head 11.8066 -2.19207 2.74552
rclavicle -1.23619e-015 -2.93207e-015
rhumerus 32.4688 -14.226 -60.8611
rradius 39.3664
rwrist -13.0894
rhand -3.64081 -4.27137
rfingers 7.12502
rthumb 22.0989 -33.0285
lclavicle -1.23619e-015 -2.93207e-015
lhumerus -1.57999 -21.3768 85.3429
lradius 56.2943
lwrist 0.250852
lhand -7.23095 34.2449
lfingers 7.12502
lthumb 18.6487 63.371
rfemur -35.6853 -10.9947 17.0917
rtibia 64.144
rfoot -15.0949 -9.28371
rtoes -1.50283
lfemur -12.1625 4.91312 -28.1719
ltibia 27.7401
lfoot -17.9131 -5.37641
ltoes -3.06741
117
root 2.9838 17.6964 -3.11063 -172.553 -8.28817 176.994
lowerback -1.0104 -0.3518 -5.37378
upperback -1.63415 -0.508896 -0.304342
thorax -1.07358 -0.216878 2.69873
lowerneck -21.6661 -3.80741 -10.0729
upperneck 24.1435 -3.66751 4.6309
head 11.7896 -2.15999 2.76953
rclavicle 7.97235e-015 -2.6339e-015
rhumerus 32.6642 -14.4374 -60.6279
rradius 39.8988
rwrist -14.4192
rhand -3.17122 -4.69285
rfingers 7.12502
rthumb 22.5496 -33.396
lclavicle 7.97235e-015 -2.6339e-015
lhumerus -2.14351 -21.1321 85.3661
lradius 57.5304
lwrist 0.377608
lhand -6.80261 34.1912
lfingers 7.12502
lthumb 19.0607 63.2772
rfemur -36.2386 -10.9879 16.9738
rtibia 62.4823
rfoot -15.5984 -9.62944
rtoes -2.81355
lfemur -11.3247 4.78837 -28.3173
ltibia 27.184
lfoot -18.3791 -5.09602
ltoes -4.12833
118
root 2.98276 17.6905 -3.26524 -172.551 -8.58693 176.919
lowerback -1.03841 -0.456179 -5.51903
upperback -1.59745 -0.644535 -0.307786
thorax -1.0073 -0.285496 2.77575
lowerneck -21.6214 -3.84869 -9.95128
upperneck 23.9518 -3.79038 4.75949
head 11.7169 -2.17837 2.77618
rclavicle 6.11185e-015 -7.70291e-016
rhumerus 33.1586 -14.7484 -60.5694
rradius 40.3999
rwrist -15.6769
rhand -2.59394 -5.28421
rfingers 7.12502
rthumb 23.1036 -33.919
lclavicle 6.11185e-015 -7.70291e-016
lhumerus -2.36289 -20.8123 85.2494
lradius 58.4975
lwrist 0.363907
lhand -6.85116 33.6904
lfingers 7.12502
lthumb 19.014 62.781
rfemur -36.7093 -10.9194 17.0008
rtibia 60.6432
rfoot -15.4396 -10.0849
rtoes -2.5385
lfemur -10.4513 4.62048 -28.2871
ltibia 26.5964
lfoot -18.6344 -4.80388
ltoes -4.89869
